<svg id="Capa_1" enable-background="new 0 0 512 512" height="512" viewBox="0 0 512 512" width="512" xmlns="http://www.w3.org/2000/svg"><g><path d="m117.733 154.177v124.699h-97.959v-89.755c0-19.295 15.648-34.944 34.944-34.944h17.863z" fill="#bed8fb"/><path d="m492.226 196.528v274.389c0 22.695-18.389 41.084-41.073 41.084h-337.488c-19.388 0-35.634-13.434-39.951-31.503l-.165-23.488-.958-139.878v-276.048c.001-22.695 18.39-41.084 41.074-41.084h182.033c16.359 0 69.341 45.173 116.173 92.747 42.733 43.422 80.355 88.843 80.355 103.781z" fill="#ddeafb"/><path d="m492.226 196.528v100.515c0-.113-.01-.227-.01-.35-3.091-123.333-103.554-129.04-136.406-161.893l56.062-42.052c42.732 43.421 80.354 88.842 80.354 103.78z" fill="#cbe2ff"/><path d="m295.693 0h-100.515c.113 0 .227.01.35.01 123.333 3.091 129.04 103.554 161.893 136.406l42.052-56.062c-43.422-42.732-88.843-80.354-103.78-80.354z" fill="#cbe2ff"/><path d="m492.225 196.533v17.377c0-36.586-29.668-66.253-66.253-66.253h-40.324c-22.684 0-41.081-18.397-41.081-41.081v-40.323c0-36.586-29.667-66.253-66.253-66.253h17.377c31.29 0 61.308 12.433 83.433 34.557l78.543 78.543c22.125 22.125 34.558 52.143 34.558 83.433z" fill="#bed8fb"/><path d="m350.706 310.909v92.139c0 29.803-24.158 53.961-53.961 53.961h-223.199l-.958-139.878v-60.183h224.157c29.803 0 53.961 24.157 53.961 53.961z" fill="#cbe2ff"/><path d="m385.649 278.025v92.139c0 29.803-24.158 53.961-53.961 53.961h-276.964c-1.04 0-2.06-.041-3.08-.144-17.853-1.545-31.863-16.534-31.863-34.8v-200.06c0 9.643 3.915 18.378 10.24 24.704 5.635 5.645 13.197 9.375 21.623 10.096 1.02.103 2.04.144 3.08.144h276.964c29.804-.001 53.961 24.157 53.961 53.96z" fill="#dd636e"/><path d="m51.644 223.92v200.061c-17.853-1.545-31.863-16.534-31.863-34.8v-200.06c0 9.643 3.915 18.378 10.24 24.704 5.635 5.645 13.196 9.374 21.623 10.095z" fill="#da4a54"/><g fill="#475959"><path d="m323.224 282.551c4.268 0 7.726-3.459 7.726-7.726s-3.459-7.726-7.726-7.726h-39.834c-4.268 0-7.726 3.459-7.726 7.726v98.284c0 4.267 3.459 7.726 7.726 7.726s7.726-3.459 7.726-7.726v-42.346h28.944c4.268 0 7.726-3.459 7.726-7.726s-3.459-7.726-7.726-7.726h-28.944v-32.759h32.108z"/><path d="m209.917 267.099h-27.837c-2.051 0-4.019.816-5.469 2.268-1.449 1.452-2.262 3.421-2.258 5.473v.085.003 96.586c0 .602.076 1.185.206 1.747.039 2.005.852 3.919 2.276 5.333 1.448 1.437 3.404 2.243 5.444 2.243h.029c.84-.003 20.658-.079 28.557-.218 13.711-.239 25.92-6.451 34.378-17.49 7.795-10.174 12.089-24.082 12.089-39.161.001-34.016-19.054-56.869-47.415-56.869zm.68 98.069c-4.698.082-13.958.143-20.617.179-.038-11.273-.102-31.909-.102-41.487 0-8.015-.036-29.628-.057-41.308h20.096c15.453 0 31.964 10.88 31.964 41.416-.001 23.935-12.865 40.878-31.284 41.2z"/><path d="m125.52 266.374h-27.568c-2.053 0-4.022.817-5.472 2.272-1.44 1.444-2.247 3.399-2.253 5.438 0 .006-.002.011-.002.017v99.009c0 4.267 3.459 7.726 7.726 7.726 4.268 0 7.726-3.459 7.726-7.726v-35.322c6.412-.035 15.305-.08 19.842-.08 19.968 0 36.213-16 36.213-35.667s-16.244-35.667-36.212-35.667zm0 55.881c-4.512 0-13.282.043-19.694.078-.035-6.584-.079-15.689-.079-20.293 0-3.884-.025-13.366-.045-20.214h19.819c11.254 0 20.761 9.257 20.761 20.214s-9.508 20.215-20.762 20.215z"/></g></g></svg>